<?xml version="1.0" encoding="UTF-8" standalone="no"?>
<!DOCTYPE svg PUBLIC "-//W3C//DTD SVG 1.1//EN" "http://www.w3.org/Graphics/SVG/1.1/DTD/svg11.dtd">
<svg width="100%" height="100%" viewBox="0 0 50 50" version="1.1" xmlns="http://www.w3.org/2000/svg" xmlns:xlink="http://www.w3.org/1999/xlink" xml:space="preserve" xmlns:serif="http://www.serif.com/" style="fill-rule:evenodd;clip-rule:evenodd;stroke-linejoin:round;stroke-miterlimit:2;">
    <rect id="Artboard2" x="0" y="0" width="50" height="50" style="fill:none;"/>
    <g>
        <path d="M18.572,45.429C22.832,49.689 29.163,50.264 32.713,46.714C36.263,43.165 35.687,36.834 31.427,32.574C27.168,28.314 20.837,27.739 17.287,31.289C13.737,34.838 14.313,41.169 18.572,45.429" style="fill:rgb(156,163,175);fill-rule:nonzero;"/>
        <path d="M21.374,47.726C17.182,46.345 13.104,43.886 9.609,40.391C-0.591,30.191 -1.969,15.031 6.531,6.531C15.031,-1.969 30.191,-0.591 40.391,9.609C50.591,19.809 51.969,34.969 43.469,43.469C39.557,47.381 34.234,49.201 28.633,49.031C32.142,48.902 35.43,47.625 37.908,45.147C43.85,39.205 42.886,28.61 35.757,21.481C28.628,14.352 18.032,13.388 12.091,19.329C6.15,25.27 7.113,35.866 14.243,42.995C16.381,45.133 18.831,46.717 21.374,47.726Z" style="fill:rgb(156,163,175);"/>
    </g>
</svg>
