<?xml version="1.0" encoding="UTF-8" standalone="no"?>
<!DOCTYPE svg PUBLIC "-//W3C//DTD SVG 1.1//EN" "http://www.w3.org/Graphics/SVG/1.1/DTD/svg11.dtd">
<svg width="100%" height="100%" viewBox="0 0 689 170" version="1.1" xmlns="http://www.w3.org/2000/svg" xmlns:xlink="http://www.w3.org/1999/xlink" xml:space="preserve" xmlns:serif="http://www.serif.com/" style="fill-rule:evenodd;clip-rule:evenodd;stroke-linejoin:round;stroke-miterlimit:2;">
    <g id="Artboard1" transform="matrix(1.667216,0,0,0.241355,-311.855273,-29.789149)">
        <rect x="187.051" y="123.425" width="412.949" height="700.606" style="fill:none;"/>
        <g transform="matrix(0.1267,0,0,0.875207,185.280601,71.250403)">
            <g transform="matrix(2.946278,2.946278,2.946278,-2.946278,69.634173,453.49122)">
                <path d="M57.438,-23.792C111.272,-23.791 154.914,12.576 154.913,57.438C154.914,102.299 111.273,138.667 57.438,138.667C3.604,138.667 -40.037,102.299 -40.037,57.437C-40.037,12.576 3.604,-23.792 57.438,-23.792" style="fill:rgb(104,140,200);fill-rule:nonzero;"/>
            </g>
            <g transform="matrix(2.94626,2.946297,2.946297,-2.94626,171.528706,566.04186)">
                <path d="M40.146,-16.629C77.772,-16.629 108.275,8.79 108.275,40.146C108.274,71.502 77.772,96.92 40.146,96.921C2.519,96.92 -27.984,71.501 -27.984,40.145C-27.983,8.789 2.52,-16.63 40.146,-16.629" style="fill:rgb(167,190,227);fill-rule:nonzero;"/>
            </g>
            <g transform="matrix(2.946278,2.946278,2.946278,-2.946278,266.742941,671.21564)">
                <path d="M23.987,-9.936C46.469,-9.936 64.695,5.252 64.694,23.987C64.695,42.722 46.469,57.91 23.987,57.91C1.505,57.911 -16.721,42.723 -16.719,23.987C-16.72,5.252 1.506,-9.936 23.987,-9.936" style="fill:rgb(206,230,247);fill-rule:nonzero;"/>
            </g>
        </g>
        <g transform="matrix(0.599802,0,0,4.143274,77.67923,-462.359246)">
            <g transform="matrix(100,0,0,100,364.327804,225.929197)">
                <path d="M0.025,-0.153C0.025,-0.187 0.035,-0.216 0.053,-0.241C0.072,-0.267 0.099,-0.286 0.133,-0.3C0.167,-0.314 0.206,-0.321 0.25,-0.321C0.272,-0.321 0.294,-0.319 0.317,-0.316C0.34,-0.313 0.359,-0.307 0.376,-0.3L0.376,-0.328C0.376,-0.361 0.366,-0.386 0.347,-0.403C0.327,-0.421 0.298,-0.43 0.259,-0.43C0.23,-0.43 0.203,-0.425 0.177,-0.415C0.151,-0.405 0.124,-0.39 0.095,-0.371L0.052,-0.459C0.087,-0.482 0.122,-0.499 0.159,-0.51C0.195,-0.521 0.233,-0.527 0.273,-0.527C0.348,-0.527 0.406,-0.509 0.448,-0.472C0.489,-0.435 0.51,-0.382 0.51,-0.314L0.51,-0.149C0.51,-0.136 0.513,-0.126 0.517,-0.12C0.522,-0.114 0.531,-0.11 0.542,-0.109L0.542,-0C0.53,0.002 0.519,0.004 0.51,0.005C0.5,0.006 0.492,0.007 0.485,0.007C0.458,0.007 0.438,0.001 0.424,-0.011C0.411,-0.023 0.402,-0.038 0.399,-0.055L0.396,-0.082C0.373,-0.053 0.345,-0.03 0.311,-0.014C0.277,0.002 0.242,0.01 0.207,0.01C0.172,0.01 0.141,0.003 0.114,-0.011C0.086,-0.025 0.064,-0.045 0.049,-0.07C0.033,-0.094 0.025,-0.122 0.025,-0.153ZM0.351,-0.127C0.358,-0.135 0.364,-0.143 0.369,-0.15C0.374,-0.158 0.376,-0.165 0.376,-0.172L0.376,-0.224C0.36,-0.23 0.343,-0.235 0.324,-0.239C0.305,-0.242 0.288,-0.244 0.271,-0.244C0.236,-0.244 0.208,-0.237 0.185,-0.222C0.163,-0.207 0.152,-0.188 0.152,-0.164C0.152,-0.151 0.156,-0.139 0.163,-0.127C0.17,-0.115 0.181,-0.106 0.195,-0.099C0.209,-0.092 0.226,-0.088 0.245,-0.088C0.265,-0.088 0.285,-0.092 0.304,-0.099C0.323,-0.107 0.339,-0.116 0.351,-0.127Z" style="fill:rgb(128,128,128);fill-rule:nonzero;"/>
            </g>
            <g transform="matrix(100,0,0,100,421.727804,225.929197)">
                <path d="M0.029,-0.259C0.029,-0.309 0.039,-0.354 0.059,-0.395C0.079,-0.436 0.107,-0.468 0.142,-0.491C0.177,-0.515 0.218,-0.527 0.263,-0.527C0.302,-0.527 0.337,-0.517 0.367,-0.498C0.399,-0.48 0.423,-0.455 0.44,-0.426L0.44,-0.73L0.574,-0.73L0.574,-0.15C0.574,-0.136 0.576,-0.126 0.581,-0.12C0.586,-0.114 0.594,-0.11 0.605,-0.109L0.605,-0C0.582,0.005 0.563,0.007 0.548,0.007C0.524,0.007 0.504,0.001 0.488,-0.011C0.473,-0.023 0.464,-0.039 0.462,-0.058L0.46,-0.091C0.441,-0.058 0.415,-0.033 0.382,-0.016C0.349,0.001 0.314,0.01 0.278,0.01C0.242,0.01 0.209,0.003 0.178,-0.011C0.148,-0.025 0.122,-0.044 0.1,-0.068C0.077,-0.093 0.06,-0.121 0.048,-0.154C0.035,-0.186 0.029,-0.221 0.029,-0.259ZM0.44,-0.19L0.44,-0.313C0.433,-0.332 0.423,-0.349 0.408,-0.364C0.393,-0.379 0.377,-0.391 0.359,-0.4C0.341,-0.409 0.323,-0.413 0.305,-0.413C0.284,-0.413 0.266,-0.409 0.249,-0.4C0.232,-0.392 0.218,-0.38 0.206,-0.366C0.193,-0.352 0.184,-0.335 0.177,-0.316C0.171,-0.297 0.168,-0.277 0.168,-0.256C0.168,-0.235 0.171,-0.215 0.178,-0.197C0.185,-0.178 0.196,-0.162 0.209,-0.148C0.222,-0.134 0.238,-0.124 0.256,-0.116C0.273,-0.108 0.292,-0.104 0.313,-0.104C0.326,-0.104 0.339,-0.106 0.352,-0.11C0.365,-0.115 0.377,-0.121 0.389,-0.128C0.4,-0.136 0.411,-0.145 0.419,-0.155C0.428,-0.166 0.435,-0.178 0.44,-0.19Z" style="fill:rgb(128,128,128);fill-rule:nonzero;"/>
            </g>
            <g transform="matrix(100,0,0,100,486.227804,225.929197)">
                <path d="M0.299,0.01C0.263,0.01 0.229,0.003 0.198,-0.011C0.167,-0.026 0.139,-0.045 0.116,-0.07C0.093,-0.095 0.074,-0.124 0.061,-0.156C0.049,-0.189 0.042,-0.224 0.042,-0.261C0.042,-0.311 0.053,-0.356 0.075,-0.395C0.097,-0.435 0.127,-0.467 0.166,-0.491C0.205,-0.515 0.249,-0.527 0.298,-0.527C0.345,-0.527 0.387,-0.516 0.423,-0.494C0.459,-0.473 0.486,-0.443 0.504,-0.406L0.455,-0.39C0.44,-0.419 0.418,-0.441 0.39,-0.458C0.361,-0.474 0.33,-0.482 0.296,-0.482C0.258,-0.482 0.224,-0.472 0.193,-0.453C0.162,-0.434 0.138,-0.408 0.12,-0.374C0.101,-0.34 0.092,-0.303 0.092,-0.261C0.092,-0.22 0.101,-0.182 0.12,-0.147C0.139,-0.113 0.164,-0.086 0.195,-0.065C0.226,-0.045 0.26,-0.035 0.297,-0.035C0.321,-0.035 0.345,-0.04 0.367,-0.049C0.391,-0.057 0.411,-0.069 0.427,-0.084C0.444,-0.099 0.456,-0.114 0.461,-0.131L0.51,-0.117C0.501,-0.092 0.486,-0.071 0.465,-0.052C0.444,-0.033 0.419,-0.017 0.391,-0.007C0.362,0.004 0.332,0.01 0.299,0.01Z" style="fill:rgb(128,128,128);fill-rule:nonzero;"/>
            </g>
            <g transform="matrix(100,0,0,100,540.227804,225.929197)">
                <path d="M0.299,0.01C0.262,0.01 0.228,0.003 0.197,-0.011C0.166,-0.026 0.138,-0.045 0.116,-0.07C0.093,-0.095 0.074,-0.124 0.061,-0.157C0.049,-0.19 0.042,-0.224 0.042,-0.261C0.042,-0.31 0.053,-0.355 0.075,-0.394C0.097,-0.434 0.127,-0.466 0.166,-0.491C0.205,-0.515 0.248,-0.527 0.296,-0.527C0.345,-0.527 0.389,-0.515 0.427,-0.49C0.465,-0.466 0.495,-0.433 0.517,-0.393C0.54,-0.353 0.551,-0.309 0.551,-0.261L0.551,-0.249C0.551,-0.245 0.551,-0.242 0.55,-0.239L0.094,-0.239C0.097,-0.2 0.108,-0.164 0.127,-0.133C0.146,-0.101 0.171,-0.076 0.202,-0.057C0.232,-0.039 0.265,-0.03 0.301,-0.03C0.337,-0.03 0.371,-0.039 0.403,-0.058C0.435,-0.077 0.457,-0.101 0.47,-0.13L0.514,-0.118C0.504,-0.093 0.488,-0.071 0.467,-0.052C0.445,-0.033 0.419,-0.017 0.391,-0.007C0.361,0.004 0.331,0.01 0.299,0.01ZM0.092,-0.278L0.503,-0.278C0.5,-0.318 0.49,-0.354 0.471,-0.385C0.452,-0.417 0.428,-0.441 0.398,-0.459C0.367,-0.477 0.334,-0.486 0.297,-0.486C0.26,-0.486 0.227,-0.477 0.197,-0.459C0.167,-0.441 0.143,-0.417 0.124,-0.385C0.105,-0.354 0.095,-0.318 0.092,-0.278Z" style="fill:rgb(128,128,128);fill-rule:nonzero;"/>
            </g>
            <g transform="matrix(100,0,0,100,598.527804,225.929197)">
                <path d="M0.082,-0.73L0.133,-0.73L0.133,-0.099C0.133,-0.075 0.138,-0.059 0.148,-0.05C0.158,-0.041 0.171,-0.036 0.187,-0.036C0.198,-0.036 0.209,-0.037 0.22,-0.039C0.231,-0.041 0.241,-0.044 0.25,-0.047L0.26,-0.006C0.249,-0.002 0.235,0.002 0.218,0.005C0.201,0.008 0.187,0.01 0.175,0.01C0.147,0.01 0.124,0.001 0.107,-0.016C0.091,-0.033 0.082,-0.056 0.082,-0.085L0.082,-0.73Z" style="fill:rgb(128,128,128);fill-rule:nonzero;"/>
            </g>
            <g transform="matrix(100,0,0,100,624.427804,225.929197)">
                <path d="M0.299,0.01C0.262,0.01 0.228,0.003 0.197,-0.011C0.166,-0.026 0.138,-0.045 0.116,-0.07C0.093,-0.095 0.074,-0.124 0.061,-0.157C0.049,-0.19 0.042,-0.224 0.042,-0.261C0.042,-0.31 0.053,-0.355 0.075,-0.394C0.097,-0.434 0.127,-0.466 0.166,-0.491C0.205,-0.515 0.248,-0.527 0.296,-0.527C0.345,-0.527 0.389,-0.515 0.427,-0.49C0.465,-0.466 0.495,-0.433 0.517,-0.393C0.54,-0.353 0.551,-0.309 0.551,-0.261L0.551,-0.249C0.551,-0.245 0.551,-0.242 0.55,-0.239L0.094,-0.239C0.097,-0.2 0.108,-0.164 0.127,-0.133C0.146,-0.101 0.171,-0.076 0.202,-0.057C0.232,-0.039 0.265,-0.03 0.301,-0.03C0.337,-0.03 0.371,-0.039 0.403,-0.058C0.435,-0.077 0.457,-0.101 0.47,-0.13L0.514,-0.118C0.504,-0.093 0.488,-0.071 0.467,-0.052C0.445,-0.033 0.419,-0.017 0.391,-0.007C0.361,0.004 0.331,0.01 0.299,0.01ZM0.092,-0.278L0.503,-0.278C0.5,-0.318 0.49,-0.354 0.471,-0.385C0.452,-0.417 0.428,-0.441 0.398,-0.459C0.367,-0.477 0.334,-0.486 0.297,-0.486C0.26,-0.486 0.227,-0.477 0.197,-0.459C0.167,-0.441 0.143,-0.417 0.124,-0.385C0.105,-0.354 0.095,-0.318 0.092,-0.278Z" style="fill:rgb(128,128,128);fill-rule:nonzero;"/>
            </g>
            <g transform="matrix(100,0,0,100,682.727804,225.929197)">
                <path d="M0.324,-0.475C0.277,-0.474 0.237,-0.46 0.202,-0.433C0.167,-0.407 0.142,-0.371 0.128,-0.325L0.128,-0L0.078,-0L0.078,-0.519L0.126,-0.519L0.126,-0.392C0.144,-0.429 0.168,-0.458 0.198,-0.481C0.228,-0.505 0.26,-0.518 0.293,-0.521C0.3,-0.522 0.306,-0.522 0.311,-0.522L0.324,-0.522L0.324,-0.475Z" style="fill:rgb(128,128,128);fill-rule:nonzero;"/>
            </g>
            <g transform="matrix(100,0,0,100,716.827804,225.929197)">
                <path d="M0.073,-0.22L0.073,-0.519L0.123,-0.519L0.123,-0.227C0.123,-0.162 0.134,-0.114 0.155,-0.082C0.177,-0.051 0.21,-0.035 0.254,-0.035C0.283,-0.035 0.311,-0.041 0.339,-0.054C0.365,-0.067 0.389,-0.086 0.41,-0.109C0.431,-0.133 0.446,-0.16 0.456,-0.192L0.456,-0.519L0.506,-0.519L0.506,-0.066C0.506,-0.058 0.508,-0.052 0.512,-0.048C0.515,-0.044 0.52,-0.042 0.527,-0.041L0.527,-0C0.52,0.001 0.515,0.001 0.512,0.001C0.508,0.001 0.505,0.001 0.502,-0C0.491,-0.001 0.481,-0.006 0.474,-0.014C0.467,-0.023 0.463,-0.033 0.462,-0.045L0.461,-0.123C0.438,-0.081 0.407,-0.049 0.367,-0.025C0.328,-0.002 0.285,0.01 0.239,0.01C0.184,0.01 0.143,-0.009 0.115,-0.048C0.087,-0.086 0.073,-0.144 0.073,-0.22Z" style="fill:rgb(128,128,128);fill-rule:nonzero;"/>
            </g>
            <g transform="matrix(100,0,0,100,775.527804,225.929197)">
                <path d="M0.842,-0L0.792,-0L0.792,-0.289C0.792,-0.355 0.782,-0.403 0.762,-0.434C0.741,-0.465 0.71,-0.481 0.668,-0.481C0.625,-0.481 0.588,-0.466 0.554,-0.436C0.521,-0.405 0.498,-0.367 0.485,-0.32L0.485,-0L0.435,-0L0.435,-0.289C0.435,-0.355 0.425,-0.404 0.405,-0.435C0.385,-0.466 0.354,-0.481 0.312,-0.481C0.269,-0.481 0.232,-0.466 0.199,-0.437C0.166,-0.407 0.142,-0.369 0.128,-0.321L0.128,-0L0.078,-0L0.078,-0.519L0.125,-0.519L0.125,-0.395C0.147,-0.437 0.175,-0.47 0.21,-0.493C0.245,-0.516 0.283,-0.527 0.324,-0.527C0.367,-0.527 0.403,-0.514 0.43,-0.489C0.458,-0.463 0.475,-0.429 0.48,-0.387C0.505,-0.433 0.534,-0.468 0.568,-0.492C0.602,-0.515 0.641,-0.527 0.684,-0.527C0.713,-0.527 0.737,-0.522 0.757,-0.512C0.776,-0.501 0.792,-0.486 0.805,-0.467C0.819,-0.447 0.828,-0.423 0.834,-0.395C0.839,-0.366 0.842,-0.334 0.842,-0.298L0.842,-0Z" style="fill:rgb(128,128,128);fill-rule:nonzero;"/>
            </g>
        </g>
        <g transform="matrix(0.580199,0,0,4.007863,141.928018,111.773416)">
            <g transform="matrix(50,0,0,50,397.283341,143.599183)">
                <path d="M0.842,-0L0.792,-0L0.792,-0.289C0.792,-0.355 0.782,-0.403 0.762,-0.434C0.741,-0.465 0.71,-0.481 0.668,-0.481C0.625,-0.481 0.588,-0.466 0.554,-0.436C0.521,-0.405 0.498,-0.367 0.485,-0.32L0.485,-0L0.435,-0L0.435,-0.289C0.435,-0.355 0.425,-0.404 0.405,-0.435C0.385,-0.466 0.354,-0.481 0.312,-0.481C0.269,-0.481 0.232,-0.466 0.199,-0.437C0.166,-0.407 0.142,-0.369 0.128,-0.321L0.128,-0L0.078,-0L0.078,-0.519L0.125,-0.519L0.125,-0.395C0.147,-0.437 0.175,-0.47 0.21,-0.493C0.245,-0.516 0.283,-0.527 0.324,-0.527C0.367,-0.527 0.403,-0.514 0.43,-0.489C0.458,-0.463 0.475,-0.429 0.48,-0.387C0.505,-0.433 0.534,-0.468 0.568,-0.492C0.602,-0.515 0.641,-0.527 0.684,-0.527C0.713,-0.527 0.737,-0.522 0.757,-0.512C0.776,-0.501 0.792,-0.486 0.805,-0.467C0.819,-0.447 0.828,-0.423 0.834,-0.395C0.839,-0.366 0.842,-0.334 0.842,-0.298L0.842,-0Z" style="fill:rgb(128,128,128);fill-rule:nonzero;"/>
            </g>
            <g transform="matrix(50,0,0,50,443.033341,143.599183)">
                <path d="M0.035,-0.149C0.035,-0.181 0.044,-0.208 0.063,-0.231C0.082,-0.254 0.107,-0.272 0.14,-0.285C0.173,-0.298 0.21,-0.304 0.253,-0.304C0.28,-0.304 0.307,-0.302 0.336,-0.297C0.365,-0.292 0.39,-0.286 0.413,-0.278L0.413,-0.327C0.413,-0.375 0.399,-0.413 0.371,-0.441C0.344,-0.47 0.306,-0.484 0.257,-0.484C0.231,-0.484 0.204,-0.479 0.176,-0.468C0.148,-0.457 0.119,-0.442 0.09,-0.422L0.069,-0.458C0.103,-0.481 0.136,-0.498 0.168,-0.51C0.199,-0.521 0.231,-0.527 0.262,-0.527C0.324,-0.527 0.373,-0.509 0.409,-0.472C0.445,-0.436 0.463,-0.386 0.463,-0.323L0.463,-0.066C0.463,-0.058 0.465,-0.052 0.469,-0.048C0.472,-0.044 0.478,-0.042 0.485,-0.041L0.485,-0C0.479,0.001 0.474,0.001 0.47,0.001L0.46,0.001C0.447,-0.001 0.438,-0.006 0.43,-0.015C0.423,-0.024 0.42,-0.033 0.419,-0.044L0.419,-0.085C0.395,-0.055 0.364,-0.032 0.327,-0.015C0.289,0.002 0.249,0.01 0.208,0.01C0.175,0.01 0.146,0.003 0.12,-0.011C0.093,-0.025 0.072,-0.044 0.058,-0.068C0.043,-0.093 0.035,-0.12 0.035,-0.149ZM0.393,-0.107C0.4,-0.115 0.405,-0.124 0.408,-0.132C0.411,-0.14 0.413,-0.147 0.413,-0.153L0.413,-0.239C0.389,-0.248 0.364,-0.255 0.338,-0.26C0.312,-0.265 0.285,-0.267 0.258,-0.267C0.206,-0.267 0.164,-0.257 0.132,-0.236C0.099,-0.216 0.083,-0.188 0.083,-0.152C0.083,-0.131 0.089,-0.11 0.1,-0.092C0.111,-0.073 0.127,-0.058 0.147,-0.047C0.168,-0.036 0.191,-0.03 0.218,-0.03C0.255,-0.03 0.29,-0.037 0.322,-0.051C0.353,-0.066 0.377,-0.084 0.393,-0.107Z" style="fill:rgb(128,128,128);fill-rule:nonzero;"/>
            </g>
            <g transform="matrix(50,0,0,50,469.883341,143.599183)">
                <path d="M0.324,-0.475C0.277,-0.474 0.237,-0.46 0.202,-0.433C0.167,-0.407 0.142,-0.371 0.128,-0.325L0.128,-0L0.078,-0L0.078,-0.519L0.126,-0.519L0.126,-0.392C0.144,-0.429 0.168,-0.458 0.198,-0.481C0.228,-0.505 0.26,-0.518 0.293,-0.521C0.3,-0.522 0.306,-0.522 0.311,-0.522L0.324,-0.522L0.324,-0.475Z" style="fill:rgb(128,128,128);fill-rule:nonzero;"/>
            </g>
            <g transform="matrix(50,0,0,50,486.933341,143.599183)">
                <path d="M0.454,-0L0.251,-0.278L0.128,-0.165L0.128,-0L0.078,-0L0.078,-0.73L0.128,-0.73L0.128,-0.221L0.445,-0.519L0.502,-0.519L0.285,-0.308L0.509,-0L0.454,-0Z" style="fill:rgb(128,128,128);fill-rule:nonzero;"/>
            </g>
            <g transform="matrix(50,0,0,50,511.683341,143.599183)">
                <path d="M0.299,0.01C0.262,0.01 0.228,0.003 0.197,-0.011C0.166,-0.026 0.138,-0.045 0.116,-0.07C0.093,-0.095 0.074,-0.124 0.061,-0.157C0.049,-0.19 0.042,-0.224 0.042,-0.261C0.042,-0.31 0.053,-0.355 0.075,-0.394C0.097,-0.434 0.127,-0.466 0.166,-0.491C0.205,-0.515 0.248,-0.527 0.296,-0.527C0.345,-0.527 0.389,-0.515 0.427,-0.49C0.465,-0.466 0.495,-0.433 0.517,-0.393C0.54,-0.353 0.551,-0.309 0.551,-0.261L0.551,-0.249C0.551,-0.245 0.551,-0.242 0.55,-0.239L0.094,-0.239C0.097,-0.2 0.108,-0.164 0.127,-0.133C0.146,-0.101 0.171,-0.076 0.202,-0.057C0.232,-0.039 0.265,-0.03 0.301,-0.03C0.337,-0.03 0.371,-0.039 0.403,-0.058C0.435,-0.077 0.457,-0.101 0.47,-0.13L0.514,-0.118C0.504,-0.093 0.488,-0.071 0.467,-0.052C0.445,-0.033 0.419,-0.017 0.391,-0.007C0.361,0.004 0.331,0.01 0.299,0.01ZM0.092,-0.278L0.503,-0.278C0.5,-0.318 0.49,-0.354 0.471,-0.385C0.452,-0.417 0.428,-0.441 0.398,-0.459C0.367,-0.477 0.334,-0.486 0.297,-0.486C0.26,-0.486 0.227,-0.477 0.197,-0.459C0.167,-0.441 0.143,-0.417 0.124,-0.385C0.105,-0.354 0.095,-0.318 0.092,-0.278Z" style="fill:rgb(128,128,128);fill-rule:nonzero;"/>
            </g>
            <g transform="matrix(50,0,0,50,540.633341,143.599183)">
                <path d="M0.31,-0.021C0.307,-0.02 0.3,-0.016 0.29,-0.011C0.28,-0.006 0.267,-0.001 0.252,0.004C0.237,0.008 0.22,0.01 0.201,0.01C0.183,0.01 0.166,0.006 0.15,-0.001C0.135,-0.008 0.122,-0.018 0.113,-0.032C0.104,-0.046 0.099,-0.063 0.099,-0.084L0.099,-0.478L0.026,-0.478L0.026,-0.519L0.099,-0.519L0.099,-0.697L0.149,-0.697L0.149,-0.519L0.27,-0.519L0.27,-0.478L0.149,-0.478L0.149,-0.095C0.15,-0.076 0.157,-0.061 0.17,-0.052C0.183,-0.042 0.197,-0.037 0.214,-0.037C0.235,-0.037 0.253,-0.041 0.268,-0.048C0.283,-0.054 0.292,-0.059 0.295,-0.061L0.31,-0.021Z" style="fill:rgb(128,128,128);fill-rule:nonzero;"/>
            </g>
            <g transform="matrix(50,0,0,50,556.633341,143.599183)">
                <path d="M0.078,-0L0.078,-0.52L0.128,-0.52L0.128,-0L0.078,-0ZM0.078,-0.638L0.078,-0.73L0.128,-0.73L0.128,-0.638L0.078,-0.638Z" style="fill:rgb(128,128,128);fill-rule:nonzero;"/>
            </g>
            <g transform="matrix(50,0,0,50,566.983341,143.599183)">
                <path d="M0.503,-0L0.453,-0L0.453,-0.289C0.453,-0.355 0.444,-0.404 0.424,-0.435C0.405,-0.466 0.375,-0.481 0.334,-0.481C0.305,-0.481 0.276,-0.474 0.247,-0.46C0.219,-0.446 0.195,-0.427 0.174,-0.403C0.152,-0.379 0.137,-0.351 0.128,-0.321L0.128,-0L0.078,-0L0.078,-0.519L0.125,-0.519L0.125,-0.395C0.139,-0.421 0.158,-0.444 0.181,-0.464C0.204,-0.483 0.23,-0.499 0.259,-0.51C0.288,-0.521 0.317,-0.527 0.348,-0.527C0.377,-0.527 0.401,-0.522 0.42,-0.512C0.44,-0.501 0.456,-0.486 0.469,-0.467C0.481,-0.448 0.49,-0.424 0.495,-0.396C0.5,-0.367 0.503,-0.334 0.503,-0.298L0.503,-0Z" style="fill:rgb(128,128,128);fill-rule:nonzero;"/>
            </g>
            <g transform="matrix(50,0,0,50,595.783341,143.599183)">
                <path d="M0.288,0.01C0.253,0.01 0.22,0.003 0.19,-0.012C0.159,-0.027 0.133,-0.047 0.112,-0.072C0.09,-0.098 0.073,-0.127 0.06,-0.159C0.048,-0.19 0.042,-0.223 0.042,-0.257C0.042,-0.292 0.048,-0.326 0.06,-0.359C0.071,-0.392 0.088,-0.421 0.11,-0.446C0.131,-0.47 0.157,-0.49 0.186,-0.505C0.215,-0.52 0.248,-0.527 0.284,-0.527C0.329,-0.527 0.369,-0.515 0.403,-0.492C0.436,-0.469 0.465,-0.44 0.488,-0.406L0.488,-0.519L0.534,-0.519L0.534,0.01C0.534,0.057 0.523,0.096 0.5,0.128C0.477,0.16 0.447,0.184 0.41,0.2C0.373,0.215 0.332,0.223 0.289,0.223C0.228,0.223 0.18,0.212 0.144,0.19C0.109,0.168 0.08,0.139 0.058,0.103L0.092,0.08C0.113,0.115 0.141,0.14 0.176,0.157C0.211,0.174 0.249,0.182 0.289,0.182C0.324,0.182 0.357,0.176 0.387,0.163C0.416,0.15 0.44,0.131 0.458,0.105C0.475,0.08 0.484,0.049 0.484,0.012L0.484,-0.102C0.463,-0.068 0.435,-0.041 0.4,-0.021C0.364,-0 0.327,0.01 0.288,0.01ZM0.3,-0.033C0.322,-0.033 0.343,-0.037 0.364,-0.045C0.385,-0.053 0.404,-0.064 0.421,-0.077C0.438,-0.091 0.453,-0.106 0.464,-0.123C0.475,-0.14 0.482,-0.156 0.484,-0.173L0.484,-0.344C0.474,-0.371 0.459,-0.395 0.439,-0.416C0.418,-0.437 0.395,-0.453 0.37,-0.465C0.345,-0.476 0.319,-0.482 0.292,-0.482C0.261,-0.482 0.233,-0.475 0.208,-0.462C0.183,-0.449 0.163,-0.431 0.145,-0.41C0.128,-0.388 0.115,-0.363 0.106,-0.337C0.097,-0.309 0.093,-0.283 0.093,-0.256C0.093,-0.226 0.098,-0.198 0.109,-0.171C0.12,-0.144 0.134,-0.121 0.153,-0.1C0.172,-0.079 0.195,-0.062 0.22,-0.051C0.245,-0.039 0.271,-0.033 0.3,-0.033Z" style="fill:rgb(128,128,128);fill-rule:nonzero;"/>
            </g>
            <g transform="matrix(50,0,0,50,639.233341,143.599183)">
                <path d="M0.332,0.01C0.287,0.01 0.248,-0.002 0.212,-0.025C0.177,-0.049 0.149,-0.078 0.128,-0.112L0.128,0.213L0.078,0.213L0.078,-0.519L0.124,-0.519L0.124,-0.414C0.145,-0.448 0.174,-0.475 0.209,-0.496C0.244,-0.517 0.282,-0.527 0.321,-0.527C0.358,-0.527 0.391,-0.52 0.421,-0.505C0.451,-0.49 0.477,-0.469 0.499,-0.444C0.522,-0.418 0.539,-0.39 0.551,-0.358C0.564,-0.326 0.57,-0.293 0.57,-0.258C0.57,-0.21 0.56,-0.166 0.54,-0.125C0.52,-0.084 0.492,-0.051 0.457,-0.027C0.421,-0.002 0.379,0.01 0.332,0.01ZM0.32,-0.035C0.351,-0.035 0.378,-0.041 0.403,-0.054C0.427,-0.067 0.448,-0.083 0.465,-0.105C0.482,-0.126 0.496,-0.15 0.505,-0.176C0.514,-0.203 0.519,-0.23 0.519,-0.258C0.519,-0.288 0.514,-0.316 0.503,-0.343C0.492,-0.37 0.478,-0.394 0.459,-0.414C0.44,-0.435 0.417,-0.451 0.393,-0.464C0.367,-0.476 0.34,-0.482 0.311,-0.482C0.293,-0.482 0.274,-0.478 0.254,-0.471C0.233,-0.464 0.214,-0.453 0.196,-0.44C0.177,-0.427 0.162,-0.412 0.15,-0.395C0.138,-0.378 0.131,-0.361 0.128,-0.343L0.128,-0.172C0.14,-0.147 0.155,-0.124 0.175,-0.103C0.194,-0.082 0.216,-0.066 0.241,-0.053C0.266,-0.041 0.293,-0.035 0.32,-0.035Z" style="fill:rgb(128,128,128);fill-rule:nonzero;"/>
            </g>
            <g transform="matrix(50,0,0,50,669.833341,143.599183)">
                <path d="M0.082,-0.73L0.133,-0.73L0.133,-0.099C0.133,-0.075 0.138,-0.059 0.148,-0.05C0.158,-0.041 0.171,-0.036 0.187,-0.036C0.198,-0.036 0.209,-0.037 0.22,-0.039C0.231,-0.041 0.241,-0.044 0.25,-0.047L0.26,-0.006C0.249,-0.002 0.235,0.002 0.218,0.005C0.201,0.008 0.187,0.01 0.175,0.01C0.147,0.01 0.124,0.001 0.107,-0.016C0.091,-0.033 0.082,-0.056 0.082,-0.085L0.082,-0.73Z" style="fill:rgb(128,128,128);fill-rule:nonzero;"/>
            </g>
            <g transform="matrix(50,0,0,50,682.783341,143.599183)">
                <path d="M0.073,-0.22L0.073,-0.519L0.123,-0.519L0.123,-0.227C0.123,-0.162 0.134,-0.114 0.155,-0.082C0.177,-0.051 0.21,-0.035 0.254,-0.035C0.283,-0.035 0.311,-0.041 0.339,-0.054C0.365,-0.067 0.389,-0.086 0.41,-0.109C0.431,-0.133 0.446,-0.16 0.456,-0.192L0.456,-0.519L0.506,-0.519L0.506,-0.066C0.506,-0.058 0.508,-0.052 0.512,-0.048C0.515,-0.044 0.52,-0.042 0.527,-0.041L0.527,-0C0.52,0.001 0.515,0.001 0.512,0.001C0.508,0.001 0.505,0.001 0.502,-0C0.491,-0.001 0.481,-0.006 0.474,-0.014C0.467,-0.023 0.463,-0.033 0.462,-0.045L0.461,-0.123C0.438,-0.081 0.407,-0.049 0.367,-0.025C0.328,-0.002 0.285,0.01 0.239,0.01C0.184,0.01 0.143,-0.009 0.115,-0.048C0.087,-0.086 0.073,-0.144 0.073,-0.22Z" style="fill:rgb(128,128,128);fill-rule:nonzero;"/>
            </g>
            <g transform="matrix(50,0,0,50,712.133341,143.599183)">
                <path d="M0.288,0.01C0.253,0.01 0.22,0.003 0.19,-0.012C0.159,-0.027 0.133,-0.047 0.112,-0.072C0.09,-0.098 0.073,-0.127 0.06,-0.159C0.048,-0.19 0.042,-0.223 0.042,-0.257C0.042,-0.292 0.048,-0.326 0.06,-0.359C0.071,-0.392 0.088,-0.421 0.11,-0.446C0.131,-0.47 0.157,-0.49 0.186,-0.505C0.215,-0.52 0.248,-0.527 0.284,-0.527C0.329,-0.527 0.369,-0.515 0.403,-0.492C0.436,-0.469 0.465,-0.44 0.488,-0.406L0.488,-0.519L0.534,-0.519L0.534,0.01C0.534,0.057 0.523,0.096 0.5,0.128C0.477,0.16 0.447,0.184 0.41,0.2C0.373,0.215 0.332,0.223 0.289,0.223C0.228,0.223 0.18,0.212 0.144,0.19C0.109,0.168 0.08,0.139 0.058,0.103L0.092,0.08C0.113,0.115 0.141,0.14 0.176,0.157C0.211,0.174 0.249,0.182 0.289,0.182C0.324,0.182 0.357,0.176 0.387,0.163C0.416,0.15 0.44,0.131 0.458,0.105C0.475,0.08 0.484,0.049 0.484,0.012L0.484,-0.102C0.463,-0.068 0.435,-0.041 0.4,-0.021C0.364,-0 0.327,0.01 0.288,0.01ZM0.3,-0.033C0.322,-0.033 0.343,-0.037 0.364,-0.045C0.385,-0.053 0.404,-0.064 0.421,-0.077C0.438,-0.091 0.453,-0.106 0.464,-0.123C0.475,-0.14 0.482,-0.156 0.484,-0.173L0.484,-0.344C0.474,-0.371 0.459,-0.395 0.439,-0.416C0.418,-0.437 0.395,-0.453 0.37,-0.465C0.345,-0.476 0.319,-0.482 0.292,-0.482C0.261,-0.482 0.233,-0.475 0.208,-0.462C0.183,-0.449 0.163,-0.431 0.145,-0.41C0.128,-0.388 0.115,-0.363 0.106,-0.337C0.097,-0.309 0.093,-0.283 0.093,-0.256C0.093,-0.226 0.098,-0.198 0.109,-0.171C0.12,-0.144 0.134,-0.121 0.153,-0.1C0.172,-0.079 0.195,-0.062 0.22,-0.051C0.245,-0.039 0.271,-0.033 0.3,-0.033Z" style="fill:rgb(128,128,128);fill-rule:nonzero;"/>
            </g>
            <g transform="matrix(50,0,0,50,742.733341,143.599183)">
                <path d="M0.078,-0L0.078,-0.52L0.128,-0.52L0.128,-0L0.078,-0ZM0.078,-0.638L0.078,-0.73L0.128,-0.73L0.128,-0.638L0.078,-0.638Z" style="fill:rgb(128,128,128);fill-rule:nonzero;"/>
            </g>
            <g transform="matrix(50,0,0,50,753.083341,143.599183)">
                <path d="M0.503,-0L0.453,-0L0.453,-0.289C0.453,-0.355 0.444,-0.404 0.424,-0.435C0.405,-0.466 0.375,-0.481 0.334,-0.481C0.305,-0.481 0.276,-0.474 0.247,-0.46C0.219,-0.446 0.195,-0.427 0.174,-0.403C0.152,-0.379 0.137,-0.351 0.128,-0.321L0.128,-0L0.078,-0L0.078,-0.519L0.125,-0.519L0.125,-0.395C0.139,-0.421 0.158,-0.444 0.181,-0.464C0.204,-0.483 0.23,-0.499 0.259,-0.51C0.288,-0.521 0.317,-0.527 0.348,-0.527C0.377,-0.527 0.401,-0.522 0.42,-0.512C0.44,-0.501 0.456,-0.486 0.469,-0.467C0.481,-0.448 0.49,-0.424 0.495,-0.396C0.5,-0.367 0.503,-0.334 0.503,-0.298L0.503,-0Z" style="fill:rgb(128,128,128);fill-rule:nonzero;"/>
            </g>
        </g>
    </g>
</svg>
